<?xml version="1.0" standalone="no"?>
<!DOCTYPE svg PUBLIC "-//W3C//DTD SVG 20010904//EN"
 "http://www.w3.org/TR/2001/REC-SVG-20010904/DTD/svg10.dtd">
<svg version="1.0" xmlns="http://www.w3.org/2000/svg"
 width="1353.000000pt" height="1353.000000pt" viewBox="0 0 1353.000000 1353.000000"
 preserveAspectRatio="xMidYMid meet">
<metadata>
Created by potrace 1.11, written by Peter Selinger 2001-2013
</metadata>
<g transform="translate(0.000000,1353.000000) scale(0.100000,-0.100000)"
fill="#000000" stroke="none">
<path d="M5865 13445 c-636 -86 -1259 -262 -1830 -515 -189 -84 -481 -232
-643 -327 l-134 -78 6 -50 c4 -27 10 -101 15 -164 5 -62 14 -118 20 -124 6 -6
11 -17 11 -24 0 -15 -105 -18 -143 -4 l-23 9 4 141 c3 86 1 141 -5 141 -16 0
-265 -173 -448 -310 -305 -229 -550 -446 -792 -700 -406 -428 -659 -759 -950
-1244 -199 -332 -523 -1016 -475 -1002 70 19 260 51 362 61 36 4 103 13 150
20 201 32 295 37 413 20 137 -20 177 -31 179 -53 6 -65 -16 -99 -71 -107 -20
-4 -56 -10 -81 -15 -104 -21 -238 -41 -450 -70 -124 -17 -263 -37 -310 -45
-47 -8 -130 -22 -185 -31 -55 -9 -104 -20 -108 -24 -16 -14 -117 -354 -172
-575 -228 -920 -261 -1859 -99 -2810 92 -541 269 -1114 503 -1635 134 -296
344 -671 550 -979 374 -559 876 -1100 1411 -1523 220 -173 490 -362 501 -351
10 11 41 285 46 416 l5 109 -81 81 c-45 46 -91 98 -102 117 -12 19 -30 45 -42
58 -11 12 -31 39 -44 60 -32 52 -163 317 -163 330 0 6 -11 33 -25 60 -14 28
-25 56 -25 64 0 7 -9 39 -20 69 -32 91 -45 302 -27 424 13 87 13 125 1 292 -7
106 -18 210 -23 230 -5 21 -17 85 -25 143 -9 58 -23 152 -33 210 -9 58 -20
161 -23 230 -4 69 -12 161 -18 205 -6 44 -13 211 -16 370 -5 335 -35 736 -54
735 -15 -1 -103 -201 -131 -299 -17 -57 -39 -113 -49 -125 -11 -11 -23 -30
-26 -42 -4 -12 -24 -41 -46 -64 -37 -40 -42 -43 -57 -28 -22 23 -34 235 -17
298 52 190 49 183 100 228 63 55 117 80 179 84 l50 3 0 240 c1 297 0 292 105
640 23 77 44 149 47 161 4 20 -2 22 -79 33 -45 7 -94 12 -108 12 -14 1 -46 5
-72 11 -37 8 -52 6 -77 -6 -17 -9 -31 -21 -31 -26 0 -24 -27 -5 -52 36 -33 53
-35 77 -10 105 24 25 46 17 67 -27 17 -37 39 -43 65 -19 34 31 183 85 235 85
69 0 95 -9 95 -31 0 -29 15 -23 32 14 94 196 185 365 213 397 22 24 45 63 45
74 0 13 -81 5 -133 -13 -31 -11 -101 -25 -154 -31 -97 -10 -320 -46 -345 -55
-14 -5 -441 -66 -593 -85 -49 -6 -135 -17 -190 -25 -55 -7 -147 -19 -205 -25
-58 -6 -199 -22 -315 -36 -116 -13 -267 -31 -336 -39 -151 -18 -205 -19 -250
-4 -46 15 -59 35 -59 85 0 64 20 81 120 99 205 37 156 30 720 100 107 13 368
48 635 85 39 6 97 14 130 20 33 5 161 25 285 44 282 44 417 64 500 77 132 21
246 34 263 31 28 -6 20 -45 -24 -111 -23 -34 -39 -64 -36 -67 4 -4 31 18 60
47 30 30 65 62 78 71 145 106 189 148 158 148 -17 0 -101 89 -94 100 15 24
113 -8 165 -54 13 -12 22 -11 61 8 25 12 76 48 115 80 39 33 110 77 164 103
179 85 203 98 218 123 11 18 37 32 96 52 136 44 158 56 147 76 -13 25 -2 72
18 72 9 0 26 7 38 15 19 13 21 13 26 -6 4 -15 12 -20 28 -17 26 4 66 92 93
209 9 41 22 84 28 95 20 42 7 59 -46 62 -47 3 -51 1 -98 -45 -69 -68 -126
-184 -152 -312 -13 -60 -35 -83 -64 -65 -11 8 -17 24 -18 50 0 28 -8 47 -27
68 -28 30 -28 30 -34 7 -3 -13 -11 -20 -19 -17 -8 3 -14 1 -14 -5 0 -6 -5 -7
-11 -3 -7 4 -9 0 -5 -14 4 -12 2 -23 -5 -28 -8 -5 -9 -3 -4 6 6 10 4 12 -8 7
-21 -8 -77 23 -77 42 0 8 8 23 17 33 14 15 14 21 4 27 -18 12 27 23 48 12 40
-21 56 24 21 59 -25 25 -25 26 2 33 16 5 19 9 11 19 -17 23 -21 44 -11 59 8
11 8 9 4 -5 -7 -19 -6 -19 12 -3 10 9 26 17 34 17 10 0 19 12 23 33 29 130 80
231 152 299 29 27 124 83 283 164 81 42 86 43 155 38 65 -5 72 -4 95 19 30 31
76 82 110 122 39 47 80 69 145 76 33 4 70 11 83 15 18 5 22 2 22 -14 0 -12
-11 -31 -23 -44 -13 -13 -34 -39 -47 -58 -31 -46 -120 -152 -142 -168 -10 -7
-18 -17 -18 -22 0 -5 -30 -39 -66 -75 -76 -78 -74 -92 11 -76 60 11 88 4 99
-24 3 -8 3 -21 0 -28 -3 -9 20 -16 87 -25 50 -7 95 -9 101 -6 12 8 99 190 135
284 33 84 73 331 73 440 -1 48 -7 103 -15 125 -8 22 -15 41 -15 42 0 1 6 0 14
-3 21 -8 29 46 30 204 1 144 -2 152 -55 152 -25 0 -25 -1 -24 -77 1 -43 6 -87
12 -98 6 -11 8 -26 6 -33 -3 -7 -1 -18 5 -25 5 -7 12 -28 16 -47 l6 -35 -20
25 c-11 14 -20 35 -20 48 0 20 -19 60 -77 165 -18 32 5 106 28 91 5 -3 9 1 9
8 0 16 -65 80 -125 123 -112 81 -198 183 -232 275 -12 30 -39 103 -62 161 -48
124 -57 189 -42 288 12 76 33 128 60 148 29 21 51 386 26 436 -40 80 -4 335
71 502 7 17 16 44 20 60 6 27 28 71 80 161 26 45 13 81 -31 90 -19 3 -35 8
-35 10 0 2 10 22 21 45 19 35 22 56 20 157 -2 160 18 206 77 188 11 -4 36 1
56 9 28 12 45 14 66 6 59 -20 229 53 301 129 22 24 53 43 80 51 24 7 58 21 74
31 17 10 45 18 63 18 18 0 58 10 90 21 31 12 113 32 182 46 103 20 132 23 168
14 56 -14 74 -14 98 3 17 13 20 32 25 188 6 162 8 176 33 225 l27 52 64 -6
c73 -7 79 -1 43 48 -21 28 -27 30 -78 27 l-54 -3 -18 55 c-9 31 -17 89 -17
133 -1 91 25 85 -216 52z m-985 -909 c0 -3 -4 -8 -10 -11 -5 -3 -10 -1 -10 4
0 6 5 11 10 11 6 0 10 -2 10 -4z m-1400 -3625 c0 -4 25 -45 55 -90 29 -45 57
-92 61 -104 3 -12 21 -57 40 -100 45 -104 45 -111 -7 -102 -30 5 -44 3 -50 -6
-5 -8 -9 -9 -9 -3 0 6 -18 24 -40 39 -22 15 -40 34 -40 41 0 8 -4 14 -10 14
-5 0 -10 19 -10 43 0 24 -5 48 -11 54 -17 17 -23 144 -9 187 10 32 30 50 30
27z m-35 -826 c32 -9 65 -21 73 -28 8 -7 35 -20 61 -29 31 -11 38 -17 24 -17
-13 -1 -23 -5 -23 -11 0 -5 -7 -10 -15 -10 -9 0 -18 -6 -21 -14 -3 -8 -24 -17
-47 -21 -23 -3 -54 -8 -68 -11 -20 -4 -36 3 -62 25 -22 20 -53 35 -83 41 -73
14 -187 44 -202 53 -7 5 -9 13 -6 19 5 7 38 8 98 4 54 -4 102 -3 116 3 37 14
88 13 155 -4z m-2272 -1410 c24 -25 53 -45 64 -45 24 0 113 -68 113 -86 0 -8
-10 -14 -22 -14 -38 0 -189 54 -198 71 -5 8 -12 39 -16 67 -8 65 2 67 59 7z
m272 -423 c17 -7 35 -15 41 -19 6 -5 37 -25 68 -45 43 -29 56 -44 56 -62 0
-22 -8 -28 -66 -46 -36 -11 -73 -20 -81 -20 -9 0 -33 -20 -55 -45 -50 -57 -96
-71 -181 -56 -33 6 -63 13 -66 17 -9 9 38 44 60 44 40 0 26 20 -27 37 -86 27
-85 63 3 63 35 0 73 18 73 35 0 22 -37 75 -54 77 -36 5 -18 23 22 21 20 -1 58
-3 85 -4 26 -2 52 2 58 8 12 12 20 11 64 -5z m615 -302 c24 -24 27 -82 5 -100
-8 -6 -31 -14 -52 -17 -35 -4 -39 -2 -51 26 -12 28 -10 79 5 104 9 15 73 7 93
-13z m172 -147 c21 -20 40 -27 84 -31 l56 -5 -6 -51 c-3 -28 -6 -59 -6 -68 0
-25 -48 -23 -80 2 -14 11 -30 20 -37 20 -6 0 -21 15 -32 33 -11 18 -32 39 -46
47 -24 13 -35 56 -18 73 15 16 59 5 85 -20z m-692 -643 c0 -11 -4 -20 -8 -20
-4 0 -8 9 -8 20 0 11 4 20 8 20 4 0 8 -9 8 -20z"/>
<path d="M5695 12582 c-27 -5 -149 -55 -214 -87 -52 -27 -63 -41 -36 -51 24
-10 18 -22 -15 -29 -16 -3 -39 -14 -52 -24 -13 -10 -33 -21 -46 -25 -12 -4
-30 -18 -38 -32 -9 -13 -22 -24 -28 -24 -7 0 -23 -35 -36 -77 -13 -43 -34 -94
-45 -113 -30 -49 -79 -156 -95 -210 -10 -30 -32 -62 -66 -95 -51 -50 -71 -80
-95 -145 -13 -34 -15 -39 -18 -58 0 -5 -10 -19 -21 -32 -23 -26 -26 -60 -6
-60 7 0 25 12 39 26 l26 26 6 -24 c4 -18 1 -221 -4 -249 -3 -16 -47 -17 -63
-2 -16 14 -18 27 -12 90 12 132 -26 82 -71 -92 -12 -49 -26 -98 -30 -108 -9
-21 11 -47 36 -47 28 0 36 -62 15 -119 -9 -25 -23 -77 -30 -114 -8 -38 -22
-77 -31 -87 -9 -10 -15 -29 -13 -42 2 -19 10 -24 41 -26 32 -3 37 0 37 17 0
11 10 26 23 32 12 7 26 18 30 25 13 23 37 16 37 -9 0 -25 -28 -57 -48 -57 -39
0 7 -39 98 -84 67 -33 92 -56 116 -104 20 -39 179 -202 198 -202 6 -1 27 -14
46 -30 63 -55 85 -39 93 70 3 41 14 100 25 130 11 30 25 75 32 100 7 25 23 77
35 115 13 39 27 84 30 100 4 17 12 37 19 45 6 8 18 33 25 55 16 47 66 123 95
145 27 21 106 49 136 50 37 0 183 59 200 80 29 35 88 60 138 58 26 -1 61 2 79
6 21 5 41 2 60 -7 15 -8 67 -20 116 -27 90 -14 117 -30 49 -30 -43 0 -72 -23
-72 -58 0 -15 8 -23 28 -28 15 -3 40 -10 55 -14 49 -16 191 17 283 65 47 25
106 47 143 53 85 15 157 51 213 106 59 57 137 106 171 106 22 0 85 -45 155
-112 8 -7 27 -25 43 -40 30 -28 35 -50 20 -92 -8 -18 -6 -28 5 -37 9 -7 27
-36 41 -64 21 -40 25 -63 24 -114 -2 -43 1 -61 8 -56 6 3 11 30 11 58 0 95 50
221 92 236 18 7 29 19 33 38 3 15 16 63 30 105 23 74 24 118 3 118 -6 0 -8 10
-6 23 4 20 1 23 -19 19 -40 -8 -94 60 -75 94 6 11 16 6 45 -22 21 -20 40 -34
44 -31 3 4 1 12 -5 20 -14 16 -4 59 11 50 7 -4 8 0 3 13 -15 36 -27 85 -25
102 3 35 -2 39 -63 46 -72 7 -132 35 -136 62 -9 59 -34 101 -71 122 -21 12
-45 22 -54 22 -8 0 -20 6 -26 14 -6 8 -31 19 -54 24 -23 6 -64 25 -91 42 -65
42 -153 80 -182 80 -18 0 -22 5 -21 26 2 20 -6 31 -28 45 -45 27 -163 61 -186
54 -23 -7 -16 -25 10 -25 9 0 28 -10 41 -22 13 -13 35 -31 49 -40 24 -17 25
-18 5 -18 -37 0 -89 27 -131 69 -42 40 -44 51 -11 51 20 0 26 20 6 20 -33 1
-109 48 -130 80 -26 38 -58 48 -158 49 -79 1 -290 24 -290 32 0 4 16 10 35 13
42 8 45 27 8 56 -18 14 -35 19 -52 15 -15 -3 -42 -7 -61 -9 -19 -2 -47 -8 -61
-14 -18 -7 -40 -6 -78 4 -30 7 -57 11 -62 8 -5 -3 -32 -9 -61 -14 -29 -4 -65
-11 -79 -15 -21 -5 -27 -2 -31 13 -6 20 -31 30 -63 24z m202 -175 c14 -15 -12
-22 -74 -19 -74 2 -100 12 -63 24 29 8 127 5 137 -5z m1502 -476 c7 -5 11 -13
7 -19 -3 -6 -2 -13 4 -17 17 -10 11 -25 -9 -25 -11 0 -34 13 -52 29 l-32 29
29 5 c16 2 31 5 34 5 3 1 11 -2 19 -7z m-2004 -42 c9 -27 -29 -68 -39 -43 -10
26 -7 52 7 57 21 9 26 7 32 -14z m2195 -459 c0 -36 -24 -50 -47 -27 -22 22 -8
57 23 57 20 0 24 -5 24 -30z"/>
<path d="M5113 12245 c-35 -24 -61 -77 -64 -127 -4 -57 2 -64 34 -43 28 18 90
137 85 163 -4 23 -28 26 -55 7z"/>
<path d="M8929 11584 c-7 -53 6 -1051 16 -1324 3 -69 10 -249 16 -400 6 -151
13 -278 15 -282 3 -4 5 -103 5 -220 0 -382 38 -1561 51 -1574 5 -4 61 -1 125
6 129 15 225 15 253 0 10 -5 26 -29 35 -53 14 -36 14 -48 3 -82 -18 -55 -52
-71 -198 -90 -69 -9 -145 -20 -170 -24 l-45 -7 2 -153 c2 -139 4 -156 23 -176
24 -25 26 -60 5 -69 -24 -9 -17 -47 15 -90 39 -51 40 -90 3 -108 -26 -12 -28
-19 -31 -76 -3 -61 -2 -65 44 -125 60 -80 72 -106 55 -117 -8 -4 -25 -1 -41 8
-15 9 -34 12 -45 9 -16 -7 -17 -18 -11 -135 3 -70 8 -262 11 -427 6 -358 21
-589 40 -630 33 -71 35 -84 18 -133 -29 -85 -30 -107 -22 -359 l8 -250 31 -60
32 -61 8 -218 c5 -121 14 -385 20 -589 15 -519 30 -829 40 -839 4 -4 54 15
111 43 56 28 110 51 119 51 9 0 35 9 58 20 22 11 47 20 54 20 8 0 31 9 53 20
21 11 54 25 74 31 20 6 56 22 81 35 25 12 92 44 150 69 186 82 220 99 236 116
13 14 13 44 4 233 -5 119 -15 413 -20 653 -11 446 -9 485 26 514 18 15 348 48
482 49 93 0 134 -11 160 -43 12 -13 36 -144 61 -327 40 -291 93 -613 111 -681
9 -34 12 -36 50 -36 22 0 45 6 51 13 13 16 -13 865 -33 1075 -11 123 -11 126
11 162 21 35 22 45 19 213 l-3 176 25 20 c28 22 -10 23 465 -2 311 -17 546
-30 795 -45 129 -8 249 -14 266 -15 18 0 42 -8 54 -18 38 -31 36 10 70 -1167
6 -192 13 -379 16 -415 l6 -65 61 120 c274 547 492 1227 597 1865 67 408 72
480 77 1035 5 553 0 663 -53 1040 -109 779 -366 1566 -734 2244 l-93 171 -56
0 c-31 0 -96 5 -146 11 -49 6 -112 12 -140 14 -27 2 -102 11 -165 19 -110 15
-223 27 -375 41 -38 4 -81 8 -95 10 -14 2 -52 7 -85 10 -33 4 -71 10 -85 15
-14 5 -88 16 -165 25 -77 8 -171 19 -210 24 -141 19 -423 41 -439 35 -19 -7
-21 -27 -3 -42 6 -6 91 -20 187 -31 259 -31 412 -50 530 -67 58 -8 124 -14
146 -14 74 0 98 -9 124 -48 22 -35 24 -48 29 -212 7 -220 7 -222 -31 -244 -26
-16 -44 -18 -127 -12 -169 12 -203 15 -341 31 -74 8 -187 19 -250 25 -126 10
-564 56 -632 66 -72 9 -130 28 -136 44 -20 51 -64 68 -99 38 -28 -24 -61 -28
-83 -10 -22 19 -32 76 -18 105 5 10 5 17 -1 17 -6 0 -2 20 8 43 11 24 17 56
14 70 -4 22 -2 27 15 27 12 0 22 8 25 21 4 16 11 19 26 14 11 -3 29 -1 40 4
19 11 51 63 51 85 1 6 14 26 30 45 l29 34 110 -7 c112 -7 151 0 151 28 0 27
42 51 99 56 l56 5 7 57 c4 34 18 74 33 98 25 39 26 40 83 40 59 0 286 -25 312
-34 8 -3 83 -12 165 -21 83 -8 200 -22 260 -30 212 -29 261 -35 380 -45 66 -6
147 -15 180 -20 33 -5 107 -14 165 -20 58 -6 135 -16 171 -22 36 -6 71 -9 77
-7 12 4 -158 265 -253 389 -84 111 -281 352 -332 408 l-48 52 -180 26 c-99 14
-200 30 -225 35 -25 6 -97 15 -160 20 -63 5 -153 16 -200 24 -47 8 -141 19
-210 25 -69 6 -150 15 -180 20 -30 6 -134 19 -230 30 -96 11 -206 25 -245 30
-38 6 -140 16 -225 24 -85 8 -202 22 -260 30 -58 9 -179 25 -270 36 -91 10
-208 26 -260 34 -136 20 -260 30 -261 20z m820 -3476 c-7 -13 -6 -18 5 -18 7
0 16 -7 20 -15 3 -8 12 -15 21 -15 11 0 14 -6 9 -25 -5 -20 -3 -24 9 -19 21 7
30 -11 14 -28 -11 -11 -9 -17 11 -37 14 -14 23 -18 20 -10 -3 8 1 30 7 50 9
24 10 41 3 53 -7 13 -5 21 9 31 10 8 23 14 28 15 6 0 3 -5 -5 -11 -13 -9 -13
-10 0 -6 9 2 14 13 12 28 -2 23 -2 23 12 5 8 -10 19 -15 25 -11 6 3 19 2 28
-4 11 -6 24 -6 36 1 11 5 17 6 14 1 -3 -5 1 -22 9 -38 8 -16 13 -33 11 -38 -2
-6 9 -24 24 -40 l28 -30 128 17 c70 10 151 21 178 26 28 5 115 16 195 25 80 9
199 24 265 35 181 29 354 35 445 16 159 -34 197 -47 209 -73 17 -38 13 -60
-15 -82 -36 -29 -76 -38 -238 -56 -77 -8 -167 -20 -200 -25 -34 -5 -128 -16
-211 -25 -156 -16 -398 -51 -595 -85 -63 -11 -127 -20 -141 -20 -15 0 -31 -6
-36 -12 -14 -18 -25 -86 -17 -100 11 -17 4 -111 -8 -126 -8 -9 -8 -16 0 -24 8
-8 7 -14 -3 -24 -7 -8 -11 -23 -8 -34 3 -11 0 -27 -7 -35 -6 -8 -8 -20 -4 -26
4 -7 3 -9 -2 -6 -6 3 -16 -8 -23 -24 -7 -17 -24 -35 -37 -41 -18 -8 -21 -14
-12 -20 10 -6 8 -8 -4 -8 -10 0 -18 5 -18 10 0 6 -4 10 -10 10 -5 0 -7 -8 -3
-17 3 -10 3 -15 -1 -11 -5 4 -10 24 -13 44 -7 50 -26 70 -47 49 -8 -9 -13 -22
-10 -30 4 -9 0 -15 -9 -15 -8 0 -17 5 -19 11 -2 6 -4 -9 -4 -35 0 -25 4 -46 9
-46 5 0 -1 -13 -13 -30 -12 -16 -18 -34 -15 -40 3 -5 -1 -10 -11 -10 -13 0
-14 -3 -4 -15 10 -12 8 -16 -15 -25 -33 -13 -38 -13 -30 0 3 6 -1 10 -10 10
-12 0 -15 -5 -11 -17 4 -11 -1 -8 -13 7 -14 18 -17 29 -10 42 5 10 7 19 4 19
-3 1 -9 3 -15 4 -5 1 -14 3 -20 4 -13 1 -13 37 0 60 9 17 4 46 -20 123 -4 15
-5 29 -2 32 11 12 11 106 -1 106 -9 0 -9 2 0 8 7 4 12 16 11 27 0 11 3 35 7
53 4 19 4 32 -2 32 -6 0 -8 25 -5 58 6 86 3 222 -7 240 -4 8 -5 29 0 46 36
138 45 166 55 166 7 0 14 8 16 18 3 10 12 19 21 19 12 0 14 -4 6 -19z m95
-953 c3 -8 1 -15 -4 -15 -6 0 -10 7 -10 15 0 8 2 15 4 15 2 0 6 -7 10 -15z
m854 -1486 c45 2 56 0 68 -17 8 -12 31 -22 59 -27 26 -3 49 -13 52 -21 3 -8
11 -14 19 -14 22 0 38 -38 23 -58 -37 -49 -108 -104 -154 -118 -64 -20 -239
-40 -427 -49 l-146 -8 -26 26 c-21 21 -26 36 -26 77 0 57 21 106 47 114 10 2
59 10 108 16 50 6 120 16 157 21 37 5 90 9 118 9 32 0 49 4 45 10 -3 6 -16 10
-28 11 -20 1 -19 2 6 12 15 6 27 15 27 20 0 4 6 5 13 0 6 -4 36 -6 65 -4z"/>
<path d="M9960 7264 c0 -8 5 -12 10 -9 6 3 10 10 10 16 0 5 -4 9 -10 9 -5 0
-10 -7 -10 -16z"/>
<path d="M7806 11455 c4 -8 8 -15 10 -15 2 0 4 7 4 15 0 8 -4 15 -10 15 -5 0
-7 -7 -4 -15z"/>
<path d="M7835 11410 c3 -5 11 -10 16 -10 6 0 7 5 4 10 -3 6 -11 10 -16 10 -6
0 -7 -4 -4 -10z"/>
<path d="M6210 10996 c-19 -12 -46 -27 -60 -31 -62 -19 -137 -91 -117 -112 10
-10 142 -5 172 6 18 8 45 9 70 5 22 -5 73 -7 113 -5 65 2 79 -1 125 -27 34
-19 75 -32 115 -37 34 -4 65 -11 68 -16 8 -13 48 -11 62 3 44 44 -29 143 -125
170 -104 29 -187 47 -243 52 -30 3 -75 7 -100 10 -37 5 -52 2 -80 -18z"/>
<path d="M7405 10913 c-101 -13 -137 -26 -175 -62 -27 -26 -40 -47 -40 -64 0
-26 1 -27 63 -27 38 0 86 8 122 21 59 21 98 21 171 3 26 -7 27 -6 20 32 -12
65 -16 74 -46 89 -28 15 -52 16 -115 8z"/>
<path d="M6362 10729 c-46 -4 -94 -15 -107 -23 -14 -9 -29 -16 -35 -16 -6 0
-26 -10 -46 -22 -26 -17 -34 -28 -31 -45 3 -17 -4 -28 -29 -43 -34 -19 -45
-47 -21 -55 6 -2 38 -5 70 -8 56 -4 60 -2 70 22 24 54 50 54 77 1 31 -61 69
-74 130 -44 30 16 33 16 42 0 7 -12 23 -16 63 -16 43 0 60 5 83 25 17 14 44
27 62 29 17 2 40 13 51 25 18 19 18 23 5 49 -11 21 -35 37 -88 60 -40 17 -89
34 -108 38 -19 3 -39 10 -45 14 -19 14 -61 17 -143 9z"/>
<path d="M7215 10671 c-58 -15 -91 -39 -109 -80 -25 -55 -16 -91 24 -91 21 0
40 -11 69 -40 48 -49 78 -51 114 -10 32 35 37 36 60 10 35 -42 87 -11 87 52 0
64 -32 118 -86 147 -29 14 -122 22 -159 12z"/>
<path d="M6796 9864 c-27 -19 -47 -25 -72 -22 -48 6 -45 -21 6 -62 35 -27 49
-32 102 -33 53 -2 63 1 76 21 17 26 44 29 63 6 11 -14 13 -14 21 0 15 27 -34
90 -80 104 -57 17 -73 15 -116 -14z"/>
<path d="M6615 9511 c-49 -4 -96 -10 -103 -14 -7 -5 -45 -10 -84 -13 -48 -3
-78 -10 -90 -21 -19 -17 -24 -43 -9 -43 5 0 22 -10 38 -23 30 -25 68 -38 174
-61 62 -14 102 -18 289 -32 41 -2 107 -10 146 -15 65 -10 74 -9 122 12 28 13
56 34 63 46 10 18 7 27 -17 58 -31 41 -66 59 -96 49 -16 -5 -19 -12 -14 -35 8
-41 -14 -49 -138 -49 -97 0 -107 2 -134 25 -18 15 -42 25 -60 25 -35 0 -64 24
-56 45 7 18 125 21 219 5 63 -10 129 -4 119 11 -3 5 -17 9 -32 9 -15 1 -38 7
-52 15 -27 15 -117 17 -285 6z"/>
<path d="M7367 9263 c-2 -5 -21 -48 -42 -96 -33 -79 -36 -91 -25 -113 8 -13
21 -24 30 -24 9 0 21 -5 28 -12 22 -22 29 5 35 130 4 98 2 122 -8 122 -8 0
-16 -3 -18 -7z"/>
<path d="M6916 9042 c-57 -21 -108 -74 -138 -142 -16 -36 -19 -58 -14 -110 9
-89 9 -89 2 -228 -3 -67 -8 -127 -11 -132 -8 -14 38 -13 52 1 6 6 23 9 39 7
22 -2 28 -8 26 -21 -2 -12 4 -21 17 -24 33 -8 25 -21 -21 -35 -24 -6 -54 -19
-68 -28 -14 -9 -34 -21 -45 -26 -29 -16 -44 -53 -59 -145 -13 -80 -13 -81 11
-97 14 -9 43 -31 66 -47 23 -17 54 -38 69 -48 44 -28 70 -91 79 -192 11 -113
28 -255 39 -320 31 -179 44 -250 46 -253 3 -6 80 33 114 58 19 14 47 31 63 38
31 13 33 29 17 147 -19 143 -23 282 -10 290 22 14 144 22 168 12 18 -8 22 -18
22 -51 0 -23 7 -81 15 -131 8 -49 15 -109 15 -132 0 -40 2 -43 27 -43 15 0 41
-5 60 -12 18 -6 35 -9 39 -5 6 6 1 78 -27 372 -14 144 -14 225 1 305 6 35 15
123 20 195 10 153 5 164 -76 172 -27 3 -54 10 -60 14 -6 5 -43 6 -81 3 -45 -4
-73 -3 -77 4 -13 21 182 26 254 7 l25 -7 -24 21 c-17 16 -37 21 -76 21 -54 0
-113 15 -102 27 4 3 46 6 94 7 l88 1 -3 53 c-2 29 -14 94 -27 145 -63 246 -71
261 -161 307 -68 34 -71 35 -204 37 -108 2 -145 -1 -184 -15z m189 -632 c-3
-5 -13 -10 -21 -10 -8 0 -14 5 -14 10 0 6 9 10 21 10 11 0 17 -4 14 -10z"/>
<path d="M6770 8365 c-16 -19 0 -19 26 0 16 12 16 14 3 15 -9 0 -22 -7 -29
-15z"/>
<path d="M4537 8301 c-32 -33 -57 -64 -57 -69 0 -6 -3 -17 -6 -26 -13 -34 15
-13 63 47 93 117 93 146 0 48z"/>
<path d="M6690 7747 c0 -44 132 -337 151 -337 12 0 12 47 0 54 -5 3 -12 26
-15 50 -4 25 -16 56 -26 69 -11 13 -35 59 -54 101 -32 69 -56 97 -56 63z"/>
<path d="M4860 7635 c0 -3 50 -56 111 -118 61 -61 121 -126 133 -143 36 -54
169 -199 185 -203 9 -2 19 -8 23 -15 7 -11 65 -12 182 -3 43 3 63 10 75 24 9
11 24 23 34 26 9 4 17 13 17 21 0 22 29 28 58 12 51 -28 97 -49 108 -50 6 -1
30 -17 54 -36 23 -19 62 -46 85 -60 43 -26 89 -69 115 -108 31 -46 161 -69
193 -34 15 16 15 19 -3 30 -23 14 -27 42 -5 42 8 0 22 14 30 30 15 30 15 32
-7 50 -18 15 -39 19 -95 20 -179 0 -273 49 -363 189 -18 28 -41 53 -52 56 -22
8 -32 44 -25 90 3 19 1 37 -5 41 -5 4 -16 22 -24 40 -17 41 -44 46 -44 8 0
-20 -21 -48 -83 -111 -80 -82 -84 -84 -142 -92 -109 -15 -207 26 -294 124 -68
76 -106 106 -173 141 -64 32 -88 40 -88 29z"/>
<path d="M5790 7115 c0 -2 10 -10 23 -16 20 -11 21 -11 8 4 -13 16 -31 23 -31
12z"/>
<path d="M7469 7070 c-8 -11 -52 -40 -98 -63 -80 -40 -87 -46 -115 -102 -35
-68 -87 -145 -110 -164 -23 -19 -21 -93 2 -122 31 -38 51 -20 54 52 l3 62 55
20 c41 14 93 20 208 24 177 7 161 -11 136 154 -17 121 -24 149 -33 150 -3 0
-25 2 -47 4 -34 4 -44 1 -55 -15z"/>
<path d="M8118 6952 c-48 -6 -30 -21 20 -18 26 2 55 4 65 5 9 0 17 5 17 10 0
5 -15 5 -35 1 -19 -4 -35 -5 -37 -1 -2 3 -15 5 -30 3z"/>
<path d="M7590 6425 c-25 -19 -49 -35 -53 -35 -5 0 -38 -13 -74 -30 -35 -16
-68 -30 -72 -30 -5 0 -14 -7 -21 -15 -10 -12 -9 -15 6 -15 23 0 88 23 129 44
17 9 46 16 65 16 19 0 65 9 102 19 37 11 75 17 85 15 24 -6 54 15 34 23 -7 3
-22 14 -32 24 -14 14 -33 19 -71 19 -45 0 -60 -6 -98 -35z"/>
<path d="M7690 6061 c-21 -12 -178 -41 -224 -41 -25 0 -35 -4 -30 -11 5 -8 41
-10 123 -5 205 11 261 18 261 31 0 27 -95 46 -130 26z"/>
<path d="M7700 5695 c-14 -8 -41 -14 -61 -15 -25 0 -42 -8 -61 -27 -27 -30
-56 -98 -45 -109 3 -3 30 5 58 20 58 28 104 33 155 14 29 -10 36 -9 54 7 27
24 25 51 -6 92 -27 36 -53 41 -94 18z"/>
<path d="M4455 5480 c-3 -5 -1 -10 4 -10 6 0 11 5 11 10 0 6 -2 10 -4 10 -3 0
-8 -4 -11 -10z"/>
<path d="M7446 5468 c-26 -43 -54 -172 -39 -181 5 -3 35 -1 68 4 33 5 113 9
178 9 l118 0 -3 67 c-3 61 -6 69 -28 80 -15 7 -63 13 -118 13 -73 0 -94 3 -98
15 -9 24 -61 19 -78 -7z"/>
<path d="M4510 5355 c0 -8 5 -15 10 -15 6 0 10 7 10 15 0 8 -4 15 -10 15 -5 0
-10 -7 -10 -15z"/>
<path d="M4525 5116 c-8 -19 -15 -58 -15 -86 0 -27 -3 -50 -7 -50 -5 0 -19
-18 -33 -40 -13 -23 -32 -40 -42 -40 -30 0 -21 -41 18 -85 26 -30 33 -45 28
-60 -4 -11 -8 -42 -8 -70 0 -60 52 -211 67 -196 14 14 18 212 5 254 -8 26 -8
52 1 99 33 174 37 207 32 253 -7 60 -26 69 -46 21z"/>
<path d="M8430 4630 l0 -59 38 -10 c115 -29 136 -20 76 32 -20 17 -52 47 -70
65 -19 17 -37 32 -39 32 -3 0 -5 -27 -5 -60z"/>
<path d="M6786 4442 c-7 -12 14 -102 27 -117 6 -6 7 12 4 49 -6 59 -19 87 -31
68z"/>
<path d="M4544 4397 c7 -40 35 -109 36 -90 0 7 -5 35 -11 62 -12 59 -36 85
-25 28z"/>
<path d="M6820 4238 c0 -40 5 -59 17 -69 15 -13 16 -9 10 45 -8 81 -27 98 -27
24z"/>
<path d="M6982 4154 c4 -21 22 -23 26 -1 2 10 -3 17 -13 17 -10 0 -15 -6 -13
-16z"/>
<path d="M4590 4126 c0 -14 5 -28 10 -31 6 -4 10 7 10 24 0 17 -4 31 -10 31
-5 0 -10 -11 -10 -24z"/>
<path d="M6861 4034 c0 -11 3 -14 6 -6 3 7 2 16 -1 19 -3 4 -6 -2 -5 -13z"/>
<path d="M6868 3985 c-7 -38 8 -284 20 -351 7 -32 7 -73 1 -115 -18 -121 -22
-199 -10 -227 6 -15 12 -64 14 -109 2 -80 9 -104 25 -89 11 11 6 584 -6 721
-6 66 -18 138 -25 160 l-14 39 -5 -29z"/>
<path d="M4192 3978 c-7 -7 -12 -19 -12 -27 0 -25 27 -96 37 -96 4 0 17 15 28
32 11 17 37 41 59 54 46 26 38 33 -45 43 -37 4 -59 2 -67 -6z"/>
<path d="M3615 3743 c-65 -9 -237 -84 -223 -98 2 -2 41 7 87 21 46 13 95 24
110 24 14 0 46 10 71 21 35 16 41 22 30 29 -15 10 -22 10 -75 3z"/>
<path d="M6023 3691 c-29 -14 -55 -34 -58 -44 -9 -23 22 -127 40 -133 18 -7
55 13 55 29 0 7 9 31 19 53 26 53 32 118 11 120 -8 1 -38 -10 -67 -25z"/>
<path d="M3489 3606 c-56 -20 -112 -51 -117 -64 -6 -19 25 -14 79 14 65 33
196 47 186 21 -4 -11 -1 -17 9 -17 27 0 113 32 125 46 10 12 -8 14 -117 14
-79 -1 -143 -6 -165 -14z"/>
<path d="M11048 3480 c-16 -21 -28 -41 -28 -45 0 -4 -15 -25 -34 -47 -61 -71
-58 -131 6 -87 18 13 37 30 41 37 5 7 19 17 32 22 13 5 31 23 40 40 15 29 15
33 0 50 -9 10 -19 29 -23 43 l-7 26 -27 -39z"/>
<path d="M3139 3332 c-80 -53 -229 -205 -215 -220 4 -3 37 25 75 63 37 39 94
94 125 123 58 52 64 65 15 34z"/>
<path d="M5716 3217 c-13 -9 -16 -20 -11 -40 8 -30 33 -40 86 -35 43 4 48 26
15 61 -27 29 -62 35 -90 14z"/>
<path d="M5640 3114 c0 -8 5 -12 10 -9 6 3 10 10 10 16 0 5 -4 9 -10 9 -5 0
-10 -7 -10 -16z"/>
<path d="M10859 3083 c-6 -16 -16 -35 -24 -43 -7 -8 -29 -45 -48 -82 -20 -37
-47 -84 -61 -105 -14 -21 -26 -43 -26 -49 0 -6 -7 -17 -15 -24 -14 -12 -73
-108 -88 -144 -4 -11 -16 -25 -26 -32 -10 -7 -24 -28 -31 -46 -8 -18 -26 -48
-42 -66 -15 -18 -31 -44 -34 -57 -3 -14 -10 -25 -15 -25 -5 0 -23 -28 -41 -61
-18 -34 -39 -73 -46 -86 -8 -13 -25 -28 -38 -33 -13 -5 -32 -27 -42 -47 -22
-50 -36 -63 -62 -63 -16 0 -20 4 -16 15 8 21 -20 19 -44 -2 -10 -10 -41 -26
-69 -36 -45 -16 -51 -21 -51 -46 0 -26 -4 -28 -61 -39 -34 -6 -69 -18 -78 -25
-9 -8 -34 -21 -56 -28 -22 -7 -49 -21 -61 -31 -11 -10 -42 -25 -70 -34 -125
-40 -134 -45 -149 -81 -21 -50 -19 -88 10 -168 33 -91 107 -163 129 -126 3 5
18 12 33 16 39 9 184 83 210 107 12 11 25 34 28 50 6 23 20 35 78 65 40 20 92
42 117 48 25 7 53 16 63 20 13 5 17 2 17 -13 0 -37 -55 -84 -146 -126 -37 -18
-96 -82 -123 -133 -10 -21 -53 -77 -95 -125 -42 -47 -76 -91 -76 -96 0 -5 -20
-25 -45 -43 -25 -19 -62 -46 -82 -61 -20 -16 -40 -28 -45 -28 -6 0 -27 -13
-48 -30 -27 -21 -62 -35 -129 -50 -87 -19 -126 -36 -161 -68 -8 -7 -30 -22
-49 -33 l-34 -21 7 -264 c4 -146 10 -274 14 -284 7 -18 18 -15 152 41 201 84
552 257 755 373 170 98 478 299 610 399 l70 52 3 330 c1 200 -1 332 -7 338 -6
6 -20 6 -38 0 -15 -6 -53 -16 -83 -23 -30 -7 -71 -21 -91 -31 -60 -30 -160
-60 -179 -54 -11 3 -27 2 -37 -3 -36 -19 -59 12 -28 38 27 22 16 53 -36 106
-48 49 -50 53 -35 70 61 69 96 118 96 132 0 10 12 35 27 57 15 22 34 52 43 66
44 76 57 95 78 114 12 12 22 29 22 37 0 15 17 38 72 98 16 17 37 47 47 68 19
37 92 134 126 168 20 20 75 132 75 152 0 8 9 25 20 39 23 29 26 63 8 81 -20
20 -38 14 -49 -15z"/>
<path d="M11120 3038 c-6 -24 -13 -51 -16 -60 -4 -14 1 -18 20 -18 25 0 26 2
26 60 0 70 -14 78 -30 18z"/>
<path d="M5173 2978 c-30 -18 -45 -48 -25 -48 10 0 67 59 61 63 -2 2 -19 -5
-36 -15z"/>
<path d="M5569 2864 c-5 -7 -40 -22 -77 -33 -61 -18 -107 -44 -151 -85 -9 -9
-56 -49 -106 -90 -49 -41 -107 -90 -127 -108 -65 -58 -261 -202 -353 -258 -22
-13 -44 -28 -50 -32 -23 -19 -82 -58 -110 -74 -16 -9 -52 -33 -80 -53 -27 -20
-81 -56 -120 -80 -70 -43 -130 -83 -151 -100 -6 -5 -28 -21 -50 -35 -70 -47
-102 -72 -134 -105 -17 -17 -38 -31 -45 -31 -29 0 -56 -97 -30 -106 8 -4 15
-12 15 -19 0 -8 6 -20 14 -28 8 -8 16 -36 18 -62 2 -27 8 -50 14 -52 7 -2 31
24 54 59 52 76 86 109 104 102 8 -3 23 8 36 25 17 25 29 31 56 31 23 0 33 4
28 11 -5 8 -1 8 14 0 26 -14 35 -14 27 -1 -3 6 0 10 9 10 8 0 20 13 27 29 14
32 12 31 194 71 55 12 116 28 135 35 19 7 55 16 80 21 44 7 61 9 148 12 34 2
42 6 42 21 0 11 5 23 10 26 6 3 10 28 10 54 0 55 21 81 71 87 40 5 119 40 119
53 0 6 11 13 25 17 15 4 25 13 25 25 0 10 9 23 20 29 12 7 20 21 20 38 0 31
24 103 33 103 11 -1 67 51 67 63 1 20 38 56 57 56 22 0 73 49 73 71 0 8 7 25
16 37 8 12 12 27 9 32 -3 6 -2 10 3 10 5 0 7 11 4 25 -2 15 0 25 7 25 6 0 11
19 11 48 1 26 7 65 15 87 8 22 15 43 15 46 0 11 -30 6 -41 -7z"/>
<path d="M6931 2767 c-1 -57 3 -86 9 -82 12 7 12 74 1 130 -7 34 -9 26 -10
-48z"/>
<path d="M8190 2792 c0 -16 77 -42 126 -42 39 0 45 2 35 14 -7 8 -31 17 -54
21 -23 3 -57 9 -74 12 -19 3 -33 1 -33 -5z"/>
<path d="M8050 2675 c0 -16 40 -19 75 -6 16 7 14 9 -14 14 -49 10 -61 9 -61
-8z"/>
<path d="M8180 2660 c36 -12 80 -12 80 0 0 6 -24 10 -52 9 -42 -1 -48 -3 -28
-9z"/>
<path d="M4933 2603 c-7 -3 -13 -11 -13 -19 0 -8 -3 -14 -7 -14 -5 0 -23 -23
-42 -50 -19 -28 -37 -50 -41 -50 -5 0 -11 -8 -14 -17 -6 -15 76 67 122 122 16
18 12 34 -5 28z"/>
<path d="M6962 2550 c0 -19 2 -27 5 -17 2 9 2 25 0 35 -3 9 -5 1 -5 -18z"/>
<path d="M10760 2555 c-5 -14 -17 -25 -27 -25 -10 0 -29 -16 -41 -34 -13 -19
-29 -33 -35 -31 -13 5 -57 -78 -60 -113 0 -12 -5 -22 -9 -22 -4 0 -8 -7 -8
-15 0 -12 14 -14 84 -9 57 4 86 3 90 -5 4 -6 17 -11 30 -11 12 0 27 -5 34 -12
9 -9 12 23 12 145 l0 157 -30 0 c-23 0 -33 -6 -40 -25z"/>
<path d="M6970 2367 c0 -103 54 -288 101 -347 l20 -25 -7 35 c-3 19 -15 62
-26 95 -11 33 -33 112 -49 175 -17 63 -32 117 -35 119 -2 2 -4 -21 -4 -52z"/>
<path d="M8424 2378 c-9 -18 -28 -47 -40 -64 -13 -17 -24 -36 -24 -42 0 -6 -6
-15 -14 -19 -28 -17 -66 -71 -60 -87 3 -9 9 -16 13 -16 4 0 27 33 50 73 49 84
84 135 106 158 19 20 19 29 0 29 -8 0 -22 -15 -31 -32z"/>
<path d="M10513 2243 c-7 -2 -13 -10 -13 -16 0 -6 -20 -29 -45 -51 -49 -44
-59 -67 -57 -133 1 -64 5 -83 17 -83 5 0 19 -3 30 -5 14 -4 28 4 48 30 28 35
28 37 18 106 -10 63 -9 75 8 115 19 43 19 48 -6 37z"/>
<path d="M3886 1658 c-24 -21 -25 -27 -18 -73 6 -40 11 -51 28 -53 20 -3 22 3
26 65 3 37 2 72 -2 76 -4 5 -19 -2 -34 -15z"/>
<path d="M9200 1635 c-12 -33 5 -126 51 -270 46 -144 73 -175 129 -145 18 10
17 14 -20 63 -44 57 -62 101 -80 192 -18 95 -39 162 -55 175 -12 10 -17 7 -25
-15z"/>
<path d="M7893 1555 c-9 -25 4 -29 17 -6 7 15 7 21 0 21 -6 0 -13 -7 -17 -15z"/>
<path d="M8630 1512 c-39 -6 -59 -30 -65 -81 -3 -25 -10 -69 -16 -97 -9 -41
-8 -61 4 -105 9 -30 19 -79 23 -109 13 -104 27 -116 100 -85 l34 14 -1 97 c-1
55 -7 115 -15 137 -8 22 -14 76 -14 121 0 91 -11 114 -50 108z"/>
<path d="M7234 1399 c-9 -15 6 -28 44 -35 29 -6 32 -4 25 12 -12 33 -54 47
-69 23z"/>
<path d="M8220 1313 c-8 -3 -33 -14 -55 -25 -22 -11 -67 -30 -100 -42 -33 -13
-87 -37 -121 -54 -33 -17 -77 -34 -97 -37 -42 -8 -69 -39 -61 -70 3 -14 -4
-31 -25 -53 -17 -17 -31 -36 -31 -41 0 -14 105 -61 137 -61 44 0 67 -10 86
-36 15 -20 16 -27 5 -46 -15 -29 -12 -49 13 -66 15 -10 18 -20 13 -45 -4 -18
-6 -40 -6 -49 0 -10 -6 -18 -14 -18 -8 0 -29 -31 -48 -74 -39 -86 -50 -127
-41 -156 7 -22 50 -47 75 -45 8 1 31 3 52 3 l36 2 7 117 c6 82 4 142 -5 198
-15 92 -16 209 -2 239 6 12 18 39 28 61 l19 40 5 -106 c6 -117 12 -132 66
-149 57 -19 81 -7 97 47 11 38 19 49 42 55 15 4 37 16 49 26 11 11 35 23 53
27 l31 6 -34 61 c-19 33 -34 63 -34 67 0 5 -9 16 -19 25 -11 10 -23 31 -26 47
-4 16 -11 31 -16 34 -5 4 -9 33 -9 66 0 58 0 59 -27 58 -16 0 -35 -3 -43 -6z"/>
<path d="M8672 980 c-12 -5 -31 -18 -43 -29 -20 -19 -20 -19 24 -40 24 -12 63
-21 88 -21 48 0 89 9 89 19 -1 11 -88 70 -111 75 -13 3 -34 1 -47 -4z"/>
<path d="M4156 849 c-121 -8 -160 -18 -142 -36 9 -9 512 -15 539 -7 38 12 7
29 -74 41 -96 13 -144 13 -323 2z"/>
<path d="M7080 788 c0 -9 5 -20 10 -23 13 -8 13 5 0 25 -8 13 -10 13 -10 -2z"/>
<path d="M7113 660 c3 -21 14 -52 25 -67 11 -16 22 -39 23 -52 5 -34 29 -40
29 -7 0 25 -65 166 -77 166 -3 0 -3 -18 0 -40z"/>
<path d="M7158 164 c3 -17 7 -22 12 -13 9 13 2 39 -10 39 -4 0 -5 -12 -2 -26z"/>
</g>
</svg>
